<?xml version="1.0" encoding="utf-8"?>
<!-- Generator: Adobe Illustrator 21.1.0, SVG Export Plug-In . SVG Version: 6.00 Build 0)  -->
<svg version="1.1" id="Layer_1" xmlns="http://www.w3.org/2000/svg" xmlns:xlink="http://www.w3.org/1999/xlink" x="0px" y="0px"
	 viewBox="0 0 800 600" style="enable-background:new 0 0 800 600;" xml:space="preserve">
<style type="text/css">
	.st0{fill:#FFFFFF;;stroke-miterlimit:10;}
	.st1{;stroke-miterlimit:10;}
</style>
<g>
	<path class="st0" d="M300.5,401.5c0-67.3,0-134.7,0-202c66.7,0,133.3,0,200,0c0,67.3,0,134.7,0,202
		C433.8,401.5,367.2,401.5,300.5,401.5z M478.7,306.4c-6.1-12-18.9-17.6-32.9-14.8c-16.7,3.3-25.1,17.3-20.2,33.5
		c2.7,8.9,9.6,13.8,17.5,17.6c5.9,2.9,11.8,5.5,17.6,8.5c3.4,1.7,5,4.8,4.6,8.6c-0.5,4-3.1,6.5-6.9,7.4c-6.9,1.7-13.5,1.2-19-4.2
		c-1.9-1.9-3.6-3.9-5.6-6.2c-4.9,2.9-9.9,5.8-15.2,8.8c1.2,2,2.1,3.6,3.2,5.1c9.6,12.8,29.1,17.9,45.3,12c9.1-3.3,15.3-9.3,16.8-19
		c1.8-11.1-1-20.8-10.9-27.2c-5.2-3.4-11-5.8-16.6-8.7c-3.3-1.7-6.7-3.2-9.8-5.3c-3.2-2.1-4.1-5.6-3.1-9.2c1.1-3.6,3.8-5.2,7.5-5.5
		c4.5-0.4,8.1,1.2,10.9,4.7c0.7,0.9,1.4,1.8,2.4,3.1C469.2,312.5,473.8,309.5,478.7,306.4z M389.5,292.1c0,2,0,3.6,0,5.2
		c0,19.9,0,39.7-0.1,59.6c0,6.2-2,9.5-5.9,10.7c-5.4,1.7-10,0-13.6-4.9c-0.9-1.3-1.8-2.6-2.9-4.1c-5.2,3.1-10.1,6.1-15.3,9.2
		c1,1.8,1.7,3.2,2.6,4.5c7.6,10.9,18.6,13.7,31.4,12.5c12.4-1.1,21.9-11.5,22.3-24c0.6-18.7,0.4-37.5,0.6-56.3
		c0-3.2,0.1-6.4-0.1-9.6c-0.1-1-1.2-2.7-1.9-2.7C401.1,292,395.6,292.1,389.5,292.1z"/>
	<path class="st1" d="M478.7,306.4c-4.9,3.1-9.5,6.1-14.4,9.2c-1-1.2-1.7-2.1-2.4-3.1c-2.8-3.5-6.4-5.1-10.9-4.7
		c-3.7,0.3-6.5,1.9-7.5,5.5c-1.1,3.6-0.2,7.1,3.1,9.2c3.1,2,6.5,3.5,9.8,5.3c5.5,2.9,11.4,5.3,16.6,8.7c9.9,6.4,12.6,16.2,10.9,27.2
		c-1.5,9.7-7.8,15.7-16.8,19c-16.2,5.9-35.7,0.8-45.3-12c-1.1-1.5-2-3.1-3.2-5.1c5.2-3,10.2-6,15.2-8.8c2.1,2.3,3.8,4.3,5.6,6.2
		c5.4,5.3,12,5.9,19,4.2c3.8-0.9,6.4-3.4,6.9-7.4c0.4-3.8-1.2-6.9-4.6-8.6c-5.8-3-11.8-5.6-17.6-8.5c-7.9-3.8-14.8-8.7-17.5-17.6
		c-4.9-16.3,3.5-30.2,20.2-33.5C459.8,288.8,472.5,294.4,478.7,306.4z"/>
	<path class="st1" d="M389.5,292.1c6.1,0,11.6-0.1,17.2,0.1c0.7,0,1.8,1.7,1.9,2.7c0.2,3.2,0.1,6.4,0.1,9.6
		c-0.2,18.8,0,37.5-0.6,56.3c-0.4,12.4-9.9,22.8-22.3,24c-12.8,1.2-23.8-1.6-31.4-12.5c-0.9-1.3-1.6-2.7-2.6-4.5
		c5.2-3.1,10.1-6.1,15.3-9.2c1.1,1.6,2,2.9,2.9,4.1c3.6,4.9,8.2,6.6,13.6,4.9c3.9-1.2,5.8-4.5,5.9-10.7c0.1-19.9,0-39.7,0.1-59.6
		C389.5,295.7,389.5,294.1,389.5,292.1z"/>
</g>
</svg>
