<?xml version="1.0" encoding="utf-8"?>
<!-- Generator: Adobe Illustrator 21.1.0, SVG Export Plug-In . SVG Version: 6.00 Build 0)  -->
<svg version="1.1" id="Layer_1" xmlns="http://www.w3.org/2000/svg" xmlns:xlink="http://www.w3.org/1999/xlink" x="0px" y="0px"
	 viewBox="0 0 800 600" style="enable-background:new 0 0 800 600;" xml:space="preserve">
<style type="text/css">
	.st0{fill:#FEFEFE;}
	.st1{fill:#17131D;}
</style>
<g>
	<path class="st0" d="M401.2,570.8c-126.3,0-252.6,0-378.9,0.1c-2.5,0-3.3-0.3-3.3-3.2c0.1-177.9,0.1-355.8,0-533.7
		c0-2.6,0.6-3.1,3.1-3.1c252.7,0.1,505.4,0.1,758.1,0c2.4,0,3.2,0.3,3.2,3c-0.1,178-0.1,356,0,534c0,2.5-0.6,2.9-3,2.9
		C654,570.7,527.6,570.8,401.2,570.8z"/>
	<path class="st1" d="M536.1,171.1c0.1,17-2.4,33.7-6,50.3c-0.6,3,0.2,3.8,2.8,4.6c19,5.9,37.2,13.5,54,24.2
		c10,6.4,19.2,13.6,26.3,23.2c13.5,18.3,12.6,37.8-2.4,55.1c-10.2,11.7-22.7,20.2-36.3,27.4c-13.2,7-27.1,12.6-41.3,17
		c-2.6,0.8-3.1,1.8-2.5,4.5c4.2,19.5,6.9,39.2,5.9,59.2c-0.7,14.4-3,28.4-10.6,41c-8.9,15-23.6,20.8-39.9,19
		c-20.7-2.3-38.1-12.1-54.9-23.4c-10-6.8-19.3-14.5-28.2-22.7c-1.9-1.8-2.8-1.1-4.3,0.3c-15.5,14.2-32.1,27-51,36.3
		c-12.1,5.9-24.5,10.2-38.3,10.1c-15.1-0.2-26-7.1-33.6-19.7c-6.3-10.5-8.8-22.1-9.9-34.1c-2.1-22.3,0.6-44.3,5.5-66.1
		c0.6-2.6-0.3-3.5-2.6-4.2c-20.8-6.5-40.8-14.8-58.8-27.3c-8.7-6-16.5-12.9-22.7-21.5c-11.7-16.3-11.5-34.1,0.6-50.3
		c10-13.3,23.3-22.3,37.6-30.1c13.2-7.2,27.2-12.8,41.5-17.4c5.7-1.8,4.7-0.6,3.5-6.1c-3.8-17.7-6.2-35.6-5.8-53.8
		c0.4-14.6,2.2-28.9,9.1-42.1c9.2-17.8,24.8-24.4,43.9-21.8c19.8,2.7,36.8,12.3,52.9,23.3c9.8,6.7,19,14.2,27.7,22.3
		c1.9,1.8,2.9,1.4,4.6-0.2c16.4-15,33.9-28.4,54.2-37.8c9.9-4.6,20.1-8,31-8.6c19.6-1,34.4,9.3,41.6,28.4
		C534.7,143.3,536.2,157.1,536.1,171.1z"/>
	<path class="st0" d="M400.8,371.8c-13.2,0.3-26-0.5-38.9-1.3c-1.8-0.1-2.6-1.1-3.4-2.3c-11.4-16.6-21.9-33.7-31-51.7
		c-2.5-4.9-4.9-9.9-7.4-14.8c-0.8-1.5-0.7-2.7,0-4.1c11.1-23.1,23.8-45.4,38.2-66.6c1-1.4,2-2.2,3.8-2.4c18.1-1.4,36.2-1.7,54.3-1.2
		c7.7,0.2,15.4,0.8,23.1,1.2c1.4,0.1,2.3,0.7,3.1,1.8c14.5,21.3,27.6,43.4,38.6,66.7c0.7,1.4,0.9,2.6,0.1,4.1
		c-11.2,23.2-23.8,45.6-38.4,66.8c-0.9,1.3-1.8,2.1-3.5,2.2C426.4,371.2,413.5,372.1,400.8,371.8z"/>
	<path class="st0" d="M602.8,299.1c-0.4,6.2-3.2,11.1-6.8,15.6c-7.1,8.8-16.3,15-26,20.6c-13.4,7.8-27.8,13.4-42.5,18.3
		c-2.3,0.7-3,0.3-3.6-1.9c-5.1-17.3-11.5-34.1-18.7-50.5c-0.6-1.3-0.6-2.3-0.1-3.6c7.2-16.4,13.5-33.1,18.6-50.3
		c0.4-1.2,0.1-3.1,2.7-2.3c19.8,6.4,39,14.2,55.9,26.6c6.8,4.9,13,10.5,17.4,17.9C601.5,292.5,602.5,295.8,602.8,299.1z"/>
	<path class="st0" d="M285.4,426.4c-0.2-14,2.2-29.1,5.2-44.2c0.5-2.3,1.4-2.6,3.4-2.1c17.1,4.2,34.3,7,51.8,8.9
		c1.7,0.2,3.1,0.6,4.3,2.2c10.7,14.6,22.2,28.6,34.7,41.8c1.2,1.3,1.3,2.1-0.1,3.3c-17.3,15.4-35.4,29.7-57.5,37.7
		c-4.8,1.7-9.8,2.8-14.8,3.2c-9.3,0.6-16.2-3.1-20.4-11.6c-3.2-6.5-4.8-13.5-5.8-20.7C285.3,439.2,285.4,433.5,285.4,426.4z"/>
	<path class="st0" d="M516.1,169.3c-0.2,17.3-2.4,32.7-5.5,47.9c-0.3,1.6-1.1,2.1-2.7,1.7c-12.3-3.1-24.8-5.3-37.3-7.1
		c-5.3-0.8-10.7-1.5-16-2.1c-1.5-0.2-2.5-0.8-3.3-2c-9.2-12.5-19-24.6-29.5-36.1c-1.3-1.4-2.5-2.8-3.9-4.2c-3-3.1-3.1-3.2,0.3-6.1
		c15.8-14.1,32.4-26.9,52.2-34.9c6.6-2.7,13.4-4.5,20.6-4.5c8.7,0,14.6,4.1,18.3,11.8c4,8.1,5.5,16.8,6.3,25.7
		C515.9,163.2,516,167.1,516.1,169.3z"/>
	<path class="st0" d="M198.5,299.2c0.6-7,4.3-12.5,8.9-17.4c9.4-10.1,21-17,33.2-23.1c10.4-5.2,21.3-9.3,32.3-13
		c2.8-0.9,3.8-0.8,4.7,2.3c4.8,16.1,10.5,31.9,17.4,47.3c1.3,3,1.5,5.5,0.1,8.6c-6.9,15.5-12.8,31.3-17.4,47.6
		c-0.7,2.6-1.6,2.9-4.1,2.1c-16.7-5.5-33-12.1-47.9-21.6c-8.6-5.5-16.7-11.6-22.6-20.1C200.4,308.1,198.7,303.9,198.5,299.2z"/>
	<path class="st0" d="M516.4,426.7c0,12.5-0.9,24.1-5.2,35.1c-4.4,11.2-10.4,15.2-22.4,14.7c-5.5-0.2-10.8-1.7-16-3.6
		c-15.8-5.8-29.5-15.1-42.6-25.5c-4.6-3.6-8.8-7.6-13.3-11.3c-1.5-1.3-1.4-2-0.1-3.5c12.4-13,23.8-26.9,34.4-41.5
		c1-1.4,2.3-2,3.9-2.2c17.4-1.8,34.5-4.6,51.5-8.8c2.5-0.6,3.7-0.7,4.4,2.5C514,397.5,516.3,412.4,516.4,426.7z"/>
	<path class="st0" d="M284.8,170.7c0.1-11.1,0.9-22.5,5.1-33.3c2.9-7.4,7-13.7,15.8-14.9c5.9-0.8,11.8-0.1,17.6,1.6
		c16,4.8,29.7,13.6,43,23.5c6.3,4.7,12.2,9.9,18.1,15c1.5,1.3,1.6,2,0.2,3.5c-12.4,12.9-23.7,26.8-34.3,41.3c-1,1.3-1.9,2.2-3.8,2.4
		c-17.8,2.1-35.6,4.8-53,9.2c-1.5,0.4-2.5,0.3-2.9-1.7C287.3,202.1,284.9,186.7,284.8,170.7z"/>
	<path class="st0" d="M425.4,207.5c-16.8-0.7-33-0.6-49.9-0.2c4.4-5.4,8.4-10.5,12.7-15.4c3.5-4.1,7.2-8,10.8-12
		c0.8-0.9,1.4-1.4,2.5-0.2C409.7,188.5,417.7,197.5,425.4,207.5z"/>
	<path class="st0" d="M375.6,391.3c16.9,0.9,33,1.1,49.5,0c-0.4,2-1.8,3.1-2.8,4.3c-6.2,7.9-12.8,15.5-19.7,22.8
		c-1.4,1.5-2.1,1.6-3.6,0C391,410,383.4,401.2,375.6,391.3z"/>
	<path class="st0" d="M492.6,323.8c4,9.9,7.4,19.3,10.4,28.9c0.1,0.3,0.2,0.6,0.2,0.9c1.9,6.3,1.9,6.5-4.6,7.8c-9,1.8-18,3.5-27,5.2
		c-0.9,0.2-1.9,0.1-3.5,0.2C476.9,352.7,485,338.9,492.6,323.8z"/>
	<path class="st0" d="M333.2,232c-8.9,14-17,28-24.7,43.2c-1.4-3.7-2.6-6.6-3.6-9.5c-3-8-5.7-16.1-8.2-24.3
		c-0.5-1.8-0.3-2.3,1.6-2.8C309.7,235.9,321.2,233.8,333.2,232z"/>
	<path class="st0" d="M333.3,366.9c-8.7-1-16.6-2.6-24.4-4.2c-3.5-0.7-7-1.6-10.5-2.3c-1.4-0.3-2-0.6-1.6-2.3
		c3.2-11.2,7.1-22.3,11.7-33.9C316.1,339,324.3,352.8,333.3,366.9z"/>
	<path class="st0" d="M492.6,274.8c-7.6-14.9-15.8-28.8-24.8-42.8c12.1,1.8,23.5,3.9,34.8,6.6c0.9,0.2,2.5-0.1,1.9,2
		C501,251.9,497.3,263,492.6,274.8z"/>
	<path class="st1" d="M400.6,340.7c-23.1,0-41.4-18.2-41.4-41.2c0-22.9,18.5-41.5,41.3-41.5c22.7,0,41.4,18.7,41.4,41.4
		C441.9,322.4,423.6,340.7,400.6,340.7z"/>
</g>
</svg>
